<mxfile host="app.diagrams.net" modified="2021-04-12T01:34:58.088Z" agent="5.0 (Windows NT 10.0; Win64; x64) AppleWebKit/537.36 (KHTML, like Gecko) Chrome/89.0.4389.114 Safari/537.36" etag="Ck_zgsJJ9X7jekcSWaUr" version="14.5.10" type="github">
  <diagram name="Page-1" id="3e8102d1-ef87-2e61-34e1-82d9a586fe2e">
    <mxGraphModel dx="972" dy="552" grid="1" gridSize="10" guides="1" tooltips="1" connect="1" arrows="1" fold="1" page="1" pageScale="1" pageWidth="1100" pageHeight="850" background="#ffffff" math="0" shadow="0">
      <root>
        <mxCell id="0" />
        <mxCell id="1" parent="0" />
        <mxCell id="70666756c84bb93c-1" value="" style="ellipse;whiteSpace=wrap;html=1;rounded=0;shadow=0;comic=0;strokeWidth=1;fontFamily=Verdana;fontSize=14;strokeColor=none;fillColor=#0069D1;" parent="1" vertex="1">
          <mxGeometry x="280" y="110" width="500" height="500" as="geometry" />
        </mxCell>
        <mxCell id="70666756c84bb93c-2" value="Machine learning projects" style="ellipse;whiteSpace=wrap;html=1;rounded=0;shadow=0;comic=0;strokeWidth=1;fontFamily=Verdana;fontSize=22;strokeColor=none;fillColor=#ffffff;fontColor=#0069D1;fontStyle=1" parent="1" vertex="1">
          <mxGeometry x="400" y="230" width="260" height="260" as="geometry" />
        </mxCell>
        <mxCell id="70666756c84bb93c-5" value="Data&lt;br&gt;Understanding" style="shadow=0;dashed=0;html=1;strokeColor=none;fillColor=#ffffff;labelPosition=center;verticalLabelPosition=bottom;verticalAlign=top;shape=mxgraph.office.users.users;rounded=0;comic=0;fontFamily=Verdana;fontSize=14;fontColor=#FFFFFF;" parent="1" vertex="1">
          <mxGeometry x="320" y="310" width="46" height="50" as="geometry" />
        </mxCell>
        <mxCell id="70666756c84bb93c-8" value="Data&lt;br&gt;Preparation" style="shadow=0;dashed=0;html=1;strokeColor=none;fillColor=#ffffff;labelPosition=center;verticalLabelPosition=bottom;verticalAlign=top;shape=mxgraph.office.services.central_management_service;rounded=0;comic=0;fontFamily=Verdana;fontSize=14;fontColor=#FFFFFF;" parent="1" vertex="1">
          <mxGeometry x="386" y="160" width="51" height="54" as="geometry" />
        </mxCell>
        <mxCell id="70666756c84bb93c-10" value="Model Selection" style="shadow=0;dashed=0;html=1;strokeColor=none;fillColor=#ffffff;labelPosition=center;verticalLabelPosition=bottom;verticalAlign=top;shape=mxgraph.office.security.token_service;rounded=0;comic=0;fontFamily=Verdana;fontSize=14;fontColor=#FFFFFF;" parent="1" vertex="1">
          <mxGeometry x="680" y="334" width="60" height="56" as="geometry" />
        </mxCell>
        <mxCell id="70666756c84bb93c-11" value="Infrastructure" style="shadow=0;dashed=0;html=1;strokeColor=none;fillColor=#ffffff;labelPosition=center;verticalLabelPosition=bottom;verticalAlign=top;shape=mxgraph.office.concepts.on_premises;rounded=0;comic=0;fontFamily=Verdana;fontSize=14;fontColor=#FFFFFF;" parent="1" vertex="1">
          <mxGeometry x="670" y="190" width="34" height="55" as="geometry" />
        </mxCell>
        <mxCell id="70666756c84bb93c-12" value="Model&lt;br&gt;Deployment" style="shadow=0;dashed=0;html=1;strokeColor=none;fillColor=#ffffff;labelPosition=center;verticalLabelPosition=bottom;verticalAlign=top;shape=mxgraph.office.concepts.globe_internet;rounded=0;comic=0;fontFamily=Verdana;fontSize=14;fontColor=#FFFFFF;" parent="1" vertex="1">
          <mxGeometry x="526" y="130" width="49" height="49" as="geometry" />
        </mxCell>
        <mxCell id="KnUd7ne6Kxb03X1U8xXq-9" value="&lt;font color=&quot;#ffffff&quot; face=&quot;verdana&quot;&gt;&lt;span style=&quot;font-size: 14px&quot;&gt;Model Training&lt;/span&gt;&lt;/font&gt;" style="shape=mxgraph.signs.people.waiting_room_2;html=1;pointerEvents=1;strokeColor=none;verticalLabelPosition=bottom;verticalAlign=top;align=center;fillColor=#FFFFFF;" vertex="1" parent="1">
          <mxGeometry x="400" y="463" width="60" height="74" as="geometry" />
        </mxCell>
        <mxCell id="KnUd7ne6Kxb03X1U8xXq-10" value="&lt;font color=&quot;#ffffff&quot; face=&quot;Verdana&quot;&gt;&lt;span style=&quot;font-size: 14px&quot;&gt;Model Evaluation&lt;/span&gt;&lt;/font&gt;" style="shape=mxgraph.signs.healthcare.mental_health;html=1;pointerEvents=1;strokeColor=none;verticalLabelPosition=bottom;verticalAlign=top;align=center;fillColor=#FFFFFF;" vertex="1" parent="1">
          <mxGeometry x="575" y="480" width="61" height="60" as="geometry" />
        </mxCell>
        <mxCell id="KnUd7ne6Kxb03X1U8xXq-12" value="" style="shape=flexArrow;endArrow=classic;html=1;strokeColor=#F5F5F5;fillColor=#ffffff;" edge="1" parent="1">
          <mxGeometry width="50" height="50" relative="1" as="geometry">
            <mxPoint x="220" y="294" as="sourcePoint" />
            <mxPoint x="270" y="244" as="targetPoint" />
          </mxGeometry>
        </mxCell>
      </root>
    </mxGraphModel>
  </diagram>
</mxfile>
